<mxfile host="app.diagrams.net" agent="Mozilla/5.0 (Windows NT 10.0; Win64; x64) AppleWebKit/537.36 (KHTML, like Gecko) Chrome/137.0.0.0 Safari/537.36 Edg/137.0.0.0" version="27.1.4">
  <diagram id="19My5bnF9IfrOEPf1a0X" name="Page-1">
    <mxGraphModel dx="1720" dy="989" grid="1" gridSize="10" guides="1" tooltips="1" connect="1" arrows="1" fold="1" page="1" pageScale="1" pageWidth="827" pageHeight="1169" math="0" shadow="0">
      <root>
        <mxCell id="0" />
        <mxCell id="1" parent="0" />
        <mxCell id="0PPeaSHixQU4XatVSOE1-1" value="" style="rounded=0;whiteSpace=wrap;html=1;dashed=1;fillColor=none;movable=0;resizable=0;rotatable=0;deletable=0;editable=0;locked=1;connectable=0;" parent="1" vertex="1">
          <mxGeometry x="220" y="210" width="160" height="470" as="geometry" />
        </mxCell>
        <mxCell id="0PPeaSHixQU4XatVSOE1-2" value="Data Flow Diagram (Data Lineage)" style="text;html=1;align=left;verticalAlign=middle;whiteSpace=wrap;rounded=0;fontSize=48;fontStyle=1" parent="1" vertex="1">
          <mxGeometry x="220" y="90" width="550" height="40" as="geometry" />
        </mxCell>
        <mxCell id="0PPeaSHixQU4XatVSOE1-5" value="Sources" style="text;html=1;align=center;verticalAlign=middle;whiteSpace=wrap;rounded=0;fontSize=24;fontStyle=0;fillColor=default;fillStyle=solid;" parent="1" vertex="1">
          <mxGeometry x="250" y="190" width="100" height="30" as="geometry" />
        </mxCell>
        <mxCell id="0PPeaSHixQU4XatVSOE1-8" value="&lt;font style=&quot;font-size: 20px;&quot;&gt;Bronze Layer&lt;/font&gt;" style="rounded=0;whiteSpace=wrap;html=1;strokeColor=#d79b00;fillColor=#ffe6cc;" parent="1" vertex="1">
          <mxGeometry x="454" y="210" width="160" height="60" as="geometry" />
        </mxCell>
        <mxCell id="0PPeaSHixQU4XatVSOE1-9" value="" style="rounded=0;whiteSpace=wrap;html=1;strokeColor=#d79b00;fillColor=none;movable=0;resizable=0;rotatable=0;deletable=0;editable=0;locked=1;connectable=0;" parent="1" vertex="1">
          <mxGeometry x="454" y="280" width="160" height="400" as="geometry" />
        </mxCell>
        <mxCell id="0PPeaSHixQU4XatVSOE1-10" value="&lt;font style=&quot;font-size: 20px;&quot;&gt;Silver Layer&lt;/font&gt;" style="rounded=0;whiteSpace=wrap;html=1;strokeColor=#666666;fillColor=#f5f5f5;fontColor=#333333;" parent="1" vertex="1">
          <mxGeometry x="660" y="210" width="160" height="60" as="geometry" />
        </mxCell>
        <mxCell id="0PPeaSHixQU4XatVSOE1-11" value="" style="rounded=0;whiteSpace=wrap;html=1;strokeColor=#666666;fillColor=none;fontColor=#333333;" parent="1" vertex="1">
          <mxGeometry x="660" y="280" width="160" height="400" as="geometry" />
        </mxCell>
        <mxCell id="0PPeaSHixQU4XatVSOE1-12" value="&lt;font style=&quot;font-size: 20px;&quot;&gt;Gold Layer&lt;/font&gt;" style="rounded=0;whiteSpace=wrap;html=1;strokeColor=#d6b656;fillColor=#fff2cc;" parent="1" vertex="1">
          <mxGeometry x="870" y="210" width="160" height="63" as="geometry" />
        </mxCell>
        <mxCell id="0PPeaSHixQU4XatVSOE1-13" value="" style="rounded=0;whiteSpace=wrap;html=1;strokeColor=#d6b656;fillColor=none;" parent="1" vertex="1">
          <mxGeometry x="870" y="283" width="160" height="397" as="geometry" />
        </mxCell>
        <mxCell id="0PPeaSHixQU4XatVSOE1-46" style="edgeStyle=orthogonalEdgeStyle;rounded=0;orthogonalLoop=1;jettySize=auto;html=1;" parent="1" source="0PPeaSHixQU4XatVSOE1-14" target="0PPeaSHixQU4XatVSOE1-43" edge="1">
          <mxGeometry relative="1" as="geometry" />
        </mxCell>
        <mxCell id="0PPeaSHixQU4XatVSOE1-47" style="edgeStyle=orthogonalEdgeStyle;rounded=0;orthogonalLoop=1;jettySize=auto;html=1;entryX=0;entryY=0.5;entryDx=0;entryDy=0;" parent="1" source="0PPeaSHixQU4XatVSOE1-14" target="0PPeaSHixQU4XatVSOE1-44" edge="1">
          <mxGeometry relative="1" as="geometry" />
        </mxCell>
        <mxCell id="0PPeaSHixQU4XatVSOE1-48" style="edgeStyle=orthogonalEdgeStyle;rounded=0;orthogonalLoop=1;jettySize=auto;html=1;entryX=0;entryY=0.5;entryDx=0;entryDy=0;" parent="1" source="0PPeaSHixQU4XatVSOE1-14" target="0PPeaSHixQU4XatVSOE1-42" edge="1">
          <mxGeometry relative="1" as="geometry" />
        </mxCell>
        <mxCell id="0PPeaSHixQU4XatVSOE1-14" value="" style="image;aspect=fixed;html=1;points=[];align=center;fontSize=12;image=img/lib/azure2/general/Folder_Blank.svg;" parent="1" vertex="1">
          <mxGeometry x="262.5" y="362" width="69" height="56.00000000000001" as="geometry" />
        </mxCell>
        <mxCell id="0PPeaSHixQU4XatVSOE1-16" value="CRM" style="text;html=1;align=center;verticalAlign=middle;whiteSpace=wrap;rounded=0;fontSize=18;fontStyle=1" parent="1" vertex="1">
          <mxGeometry x="270" y="418" width="60" height="30" as="geometry" />
        </mxCell>
        <mxCell id="YyiAksnmlZ6cGn0Zp2XR-7" style="edgeStyle=orthogonalEdgeStyle;rounded=0;orthogonalLoop=1;jettySize=auto;html=1;exitX=1;exitY=0.5;exitDx=0;exitDy=0;" edge="1" parent="1" source="0PPeaSHixQU4XatVSOE1-42" target="YyiAksnmlZ6cGn0Zp2XR-1">
          <mxGeometry relative="1" as="geometry" />
        </mxCell>
        <mxCell id="0PPeaSHixQU4XatVSOE1-42" value="&lt;font style=&quot;font-size: 14px;&quot;&gt;crm_cust_info&lt;/font&gt;" style="rounded=1;whiteSpace=wrap;html=1;fillColor=#ffe6cc;strokeColor=#d79b00;" parent="1" vertex="1">
          <mxGeometry x="464" y="322" width="140" height="40" as="geometry" />
        </mxCell>
        <mxCell id="YyiAksnmlZ6cGn0Zp2XR-8" style="edgeStyle=orthogonalEdgeStyle;rounded=0;orthogonalLoop=1;jettySize=auto;html=1;entryX=0;entryY=0.5;entryDx=0;entryDy=0;" edge="1" parent="1" source="0PPeaSHixQU4XatVSOE1-43" target="YyiAksnmlZ6cGn0Zp2XR-2">
          <mxGeometry relative="1" as="geometry" />
        </mxCell>
        <mxCell id="0PPeaSHixQU4XatVSOE1-43" value="&lt;font style=&quot;font-size: 14px;&quot;&gt;crm_prd_info&lt;/font&gt;" style="rounded=1;whiteSpace=wrap;html=1;fillColor=#ffe6cc;strokeColor=#d79b00;" parent="1" vertex="1">
          <mxGeometry x="464" y="370" width="140" height="40" as="geometry" />
        </mxCell>
        <mxCell id="0PPeaSHixQU4XatVSOE1-44" value="&lt;font style=&quot;font-size: 14px;&quot;&gt;crm_sales_detail&lt;/font&gt;" style="rounded=1;whiteSpace=wrap;html=1;fillColor=#ffe6cc;strokeColor=#d79b00;" parent="1" vertex="1">
          <mxGeometry x="464" y="421" width="140" height="40" as="geometry" />
        </mxCell>
        <mxCell id="0PPeaSHixQU4XatVSOE1-49" style="edgeStyle=orthogonalEdgeStyle;rounded=0;orthogonalLoop=1;jettySize=auto;html=1;" parent="1" source="0PPeaSHixQU4XatVSOE1-52" target="0PPeaSHixQU4XatVSOE1-55" edge="1">
          <mxGeometry relative="1" as="geometry" />
        </mxCell>
        <mxCell id="0PPeaSHixQU4XatVSOE1-50" style="edgeStyle=orthogonalEdgeStyle;rounded=0;orthogonalLoop=1;jettySize=auto;html=1;entryX=0;entryY=0.5;entryDx=0;entryDy=0;" parent="1" source="0PPeaSHixQU4XatVSOE1-52" target="0PPeaSHixQU4XatVSOE1-56" edge="1">
          <mxGeometry relative="1" as="geometry" />
        </mxCell>
        <mxCell id="0PPeaSHixQU4XatVSOE1-51" style="edgeStyle=orthogonalEdgeStyle;rounded=0;orthogonalLoop=1;jettySize=auto;html=1;entryX=0;entryY=0.5;entryDx=0;entryDy=0;" parent="1" source="0PPeaSHixQU4XatVSOE1-52" target="0PPeaSHixQU4XatVSOE1-54" edge="1">
          <mxGeometry relative="1" as="geometry" />
        </mxCell>
        <mxCell id="0PPeaSHixQU4XatVSOE1-52" value="" style="image;aspect=fixed;html=1;points=[];align=center;fontSize=12;image=img/lib/azure2/general/Folder_Blank.svg;" parent="1" vertex="1">
          <mxGeometry x="262.5" y="520" width="69" height="56.00000000000001" as="geometry" />
        </mxCell>
        <mxCell id="0PPeaSHixQU4XatVSOE1-53" value="ERP" style="text;html=1;align=center;verticalAlign=middle;whiteSpace=wrap;rounded=0;fontSize=18;fontStyle=1" parent="1" vertex="1">
          <mxGeometry x="270" y="576" width="60" height="30" as="geometry" />
        </mxCell>
        <mxCell id="YyiAksnmlZ6cGn0Zp2XR-10" style="edgeStyle=orthogonalEdgeStyle;rounded=0;orthogonalLoop=1;jettySize=auto;html=1;entryX=0;entryY=0.5;entryDx=0;entryDy=0;" edge="1" parent="1" source="0PPeaSHixQU4XatVSOE1-54" target="YyiAksnmlZ6cGn0Zp2XR-4">
          <mxGeometry relative="1" as="geometry" />
        </mxCell>
        <mxCell id="0PPeaSHixQU4XatVSOE1-54" value="&lt;span style=&quot;font-size: 14px;&quot;&gt;erp_cust_az12&lt;/span&gt;" style="rounded=1;whiteSpace=wrap;html=1;fillColor=#ffe6cc;strokeColor=#d79b00;" parent="1" vertex="1">
          <mxGeometry x="464" y="480" width="140" height="40" as="geometry" />
        </mxCell>
        <mxCell id="YyiAksnmlZ6cGn0Zp2XR-11" style="edgeStyle=orthogonalEdgeStyle;rounded=0;orthogonalLoop=1;jettySize=auto;html=1;" edge="1" parent="1" source="0PPeaSHixQU4XatVSOE1-55" target="YyiAksnmlZ6cGn0Zp2XR-5">
          <mxGeometry relative="1" as="geometry" />
        </mxCell>
        <mxCell id="0PPeaSHixQU4XatVSOE1-55" value="&lt;font style=&quot;font-size: 14px;&quot;&gt;erp_loc_a101&lt;/font&gt;" style="rounded=1;whiteSpace=wrap;html=1;fillColor=#ffe6cc;strokeColor=#d79b00;" parent="1" vertex="1">
          <mxGeometry x="464" y="528" width="140" height="40" as="geometry" />
        </mxCell>
        <mxCell id="YyiAksnmlZ6cGn0Zp2XR-12" style="edgeStyle=orthogonalEdgeStyle;rounded=0;orthogonalLoop=1;jettySize=auto;html=1;entryX=0;entryY=0.5;entryDx=0;entryDy=0;" edge="1" parent="1" source="0PPeaSHixQU4XatVSOE1-56" target="YyiAksnmlZ6cGn0Zp2XR-6">
          <mxGeometry relative="1" as="geometry" />
        </mxCell>
        <mxCell id="0PPeaSHixQU4XatVSOE1-56" value="&lt;font style=&quot;font-size: 14px;&quot;&gt;erp_px_cat_g1v2&lt;/font&gt;" style="rounded=1;whiteSpace=wrap;html=1;fillColor=#ffe6cc;strokeColor=#d79b00;" parent="1" vertex="1">
          <mxGeometry x="464" y="579" width="140" height="40" as="geometry" />
        </mxCell>
        <mxCell id="YyiAksnmlZ6cGn0Zp2XR-1" value="&lt;font style=&quot;font-size: 14px;&quot;&gt;crm_cust_info&lt;/font&gt;" style="rounded=1;whiteSpace=wrap;html=1;fillColor=#f5f5f5;strokeColor=#666666;fontColor=#333333;" vertex="1" parent="1">
          <mxGeometry x="670" y="322" width="140" height="40" as="geometry" />
        </mxCell>
        <mxCell id="YyiAksnmlZ6cGn0Zp2XR-2" value="&lt;font style=&quot;font-size: 14px;&quot;&gt;crm_prd_info&lt;/font&gt;" style="rounded=1;whiteSpace=wrap;html=1;fillColor=#f5f5f5;strokeColor=#666666;fontColor=#333333;" vertex="1" parent="1">
          <mxGeometry x="670" y="370" width="140" height="40" as="geometry" />
        </mxCell>
        <mxCell id="YyiAksnmlZ6cGn0Zp2XR-3" value="&lt;font style=&quot;font-size: 14px;&quot;&gt;crm_sales_detail&lt;/font&gt;" style="rounded=1;whiteSpace=wrap;html=1;fillColor=#f5f5f5;strokeColor=#666666;fontColor=#333333;" vertex="1" parent="1">
          <mxGeometry x="670" y="421" width="140" height="40" as="geometry" />
        </mxCell>
        <mxCell id="YyiAksnmlZ6cGn0Zp2XR-4" value="&lt;span style=&quot;font-size: 14px;&quot;&gt;erp_cust_az12&lt;/span&gt;" style="rounded=1;whiteSpace=wrap;html=1;fillColor=#f5f5f5;strokeColor=#666666;fontColor=#333333;" vertex="1" parent="1">
          <mxGeometry x="670" y="480" width="140" height="40" as="geometry" />
        </mxCell>
        <mxCell id="YyiAksnmlZ6cGn0Zp2XR-5" value="&lt;font style=&quot;font-size: 14px;&quot;&gt;erp_loc_a101&lt;/font&gt;" style="rounded=1;whiteSpace=wrap;html=1;fillColor=#f5f5f5;strokeColor=#666666;fontColor=#333333;" vertex="1" parent="1">
          <mxGeometry x="670" y="528" width="140" height="40" as="geometry" />
        </mxCell>
        <mxCell id="YyiAksnmlZ6cGn0Zp2XR-6" value="&lt;font style=&quot;font-size: 14px;&quot;&gt;erp_px_cat_g1v2&lt;/font&gt;" style="rounded=1;whiteSpace=wrap;html=1;fillColor=#f5f5f5;strokeColor=#666666;fontColor=#333333;" vertex="1" parent="1">
          <mxGeometry x="670" y="579" width="140" height="40" as="geometry" />
        </mxCell>
        <mxCell id="YyiAksnmlZ6cGn0Zp2XR-9" style="edgeStyle=orthogonalEdgeStyle;rounded=0;orthogonalLoop=1;jettySize=auto;html=1;" edge="1" parent="1" source="0PPeaSHixQU4XatVSOE1-44">
          <mxGeometry relative="1" as="geometry">
            <mxPoint x="670" y="441" as="targetPoint" />
          </mxGeometry>
        </mxCell>
        <mxCell id="YyiAksnmlZ6cGn0Zp2XR-13" value="&lt;font style=&quot;font-size: 14px;&quot;&gt;fact_sales&lt;/font&gt;" style="rounded=1;whiteSpace=wrap;html=1;fillColor=#fff2cc;strokeColor=#d6b656;" vertex="1" parent="1">
          <mxGeometry x="880" y="330" width="140" height="40" as="geometry" />
        </mxCell>
        <mxCell id="YyiAksnmlZ6cGn0Zp2XR-14" value="&lt;font style=&quot;font-size: 14px;&quot;&gt;dim_customers&lt;/font&gt;" style="rounded=1;whiteSpace=wrap;html=1;fillColor=#fff2cc;strokeColor=#d6b656;" vertex="1" parent="1">
          <mxGeometry x="880" y="421" width="140" height="40" as="geometry" />
        </mxCell>
        <mxCell id="YyiAksnmlZ6cGn0Zp2XR-15" value="&lt;font style=&quot;font-size: 14px;&quot;&gt;dim_products&lt;/font&gt;" style="rounded=1;whiteSpace=wrap;html=1;fillColor=#fff2cc;strokeColor=#d6b656;" vertex="1" parent="1">
          <mxGeometry x="880" y="511" width="140" height="40" as="geometry" />
        </mxCell>
        <mxCell id="YyiAksnmlZ6cGn0Zp2XR-22" value="" style="endArrow=classic;html=1;rounded=0;entryX=0;entryY=0.5;entryDx=0;entryDy=0;jumpStyle=gap;" edge="1" parent="1" target="YyiAksnmlZ6cGn0Zp2XR-14">
          <mxGeometry width="50" height="50" relative="1" as="geometry">
            <mxPoint x="810" y="340" as="sourcePoint" />
            <mxPoint x="860" y="290" as="targetPoint" />
          </mxGeometry>
        </mxCell>
        <mxCell id="YyiAksnmlZ6cGn0Zp2XR-23" value="" style="endArrow=classic;html=1;rounded=0;entryX=0;entryY=0.5;entryDx=0;entryDy=0;exitX=1;exitY=0.5;exitDx=0;exitDy=0;jumpStyle=gap;" edge="1" parent="1" source="YyiAksnmlZ6cGn0Zp2XR-4" target="YyiAksnmlZ6cGn0Zp2XR-14">
          <mxGeometry width="50" height="50" relative="1" as="geometry">
            <mxPoint x="810" y="390" as="sourcePoint" />
            <mxPoint x="860" y="340" as="targetPoint" />
          </mxGeometry>
        </mxCell>
        <mxCell id="YyiAksnmlZ6cGn0Zp2XR-24" value="" style="endArrow=classic;html=1;rounded=0;entryX=0;entryY=0.5;entryDx=0;entryDy=0;jumpStyle=gap;" edge="1" parent="1" target="YyiAksnmlZ6cGn0Zp2XR-14">
          <mxGeometry width="50" height="50" relative="1" as="geometry">
            <mxPoint x="810" y="550" as="sourcePoint" />
            <mxPoint x="880" y="480" as="targetPoint" />
          </mxGeometry>
        </mxCell>
        <mxCell id="YyiAksnmlZ6cGn0Zp2XR-25" value="" style="endArrow=classic;html=1;rounded=0;entryX=0;entryY=0.5;entryDx=0;entryDy=0;jumpStyle=gap;" edge="1" parent="1" target="YyiAksnmlZ6cGn0Zp2XR-15">
          <mxGeometry width="50" height="50" relative="1" as="geometry">
            <mxPoint x="810" y="390" as="sourcePoint" />
            <mxPoint x="860" y="340" as="targetPoint" />
          </mxGeometry>
        </mxCell>
        <mxCell id="YyiAksnmlZ6cGn0Zp2XR-26" value="" style="endArrow=classic;html=1;rounded=0;entryX=0;entryY=0.5;entryDx=0;entryDy=0;jumpStyle=gap;" edge="1" parent="1" target="YyiAksnmlZ6cGn0Zp2XR-15">
          <mxGeometry width="50" height="50" relative="1" as="geometry">
            <mxPoint x="810" y="600" as="sourcePoint" />
            <mxPoint x="860" y="550" as="targetPoint" />
          </mxGeometry>
        </mxCell>
        <mxCell id="YyiAksnmlZ6cGn0Zp2XR-27" value="" style="endArrow=classic;html=1;rounded=0;entryX=0;entryY=0.5;entryDx=0;entryDy=0;jumpStyle=gap;" edge="1" parent="1" target="YyiAksnmlZ6cGn0Zp2XR-13">
          <mxGeometry width="50" height="50" relative="1" as="geometry">
            <mxPoint x="810" y="440" as="sourcePoint" />
            <mxPoint x="860" y="390" as="targetPoint" />
          </mxGeometry>
        </mxCell>
      </root>
    </mxGraphModel>
  </diagram>
</mxfile>
